<svg width="16" height="16" viewBox="0 0 16 16" fill="none" xmlns="http://www.w3.org/2000/svg">
<path d="M10 12.7436C10 12.8338 9.97526 12.912 9.92578 12.978C9.8763 13.0439 9.81771 13.0769 9.75 13.0769C9.68229 13.0769 9.6237 13.0439 9.57422 12.978L6.07421 8.31127C6.02473 8.2453 6 8.16717 6 8.0769C6 7.98662 6.02474 7.90849 6.07421 7.84252L9.57422 3.17586C9.6237 3.10989 9.68229 3.0769 9.75 3.0769C9.81771 3.0769 9.8763 3.10989 9.92578 3.17586C9.97526 3.24183 10 3.31996 10 3.41024C10 3.50051 9.97526 3.57864 9.92578 3.64461L6.60547 8.0769L9.92578 12.5092C9.97526 12.5752 10 12.6533 10 12.7436Z" fill="#484848"/>
</svg>
