<svg width="16" height="16" viewBox="0 0 16 16" fill="none" xmlns="http://www.w3.org/2000/svg">
<path d="M12.7436 6C12.8339 6 12.912 6.02474 12.978 6.07422C13.0439 6.1237 13.0769 6.18229 13.0769 6.25C13.0769 6.31771 13.0439 6.3763 12.978 6.42578L8.31129 9.92578C8.24532 9.97526 8.16719 10 8.07692 10C7.98664 10 7.90851 9.97526 7.84254 9.92578L3.17588 6.42578C3.10991 6.3763 3.07692 6.31771 3.07692 6.25C3.07692 6.18229 3.10991 6.1237 3.17588 6.07422C3.24185 6.02474 3.31997 6 3.41025 6C3.50053 6 3.57865 6.02474 3.64463 6.07422L8.07692 9.39453L12.5092 6.07422C12.5752 6.02474 12.6533 6 12.7436 6Z" fill="#484848"/>
</svg>
