<svg width="16" height="16" viewBox="0 0 16 16" fill="none" xmlns="http://www.w3.org/2000/svg">
<path d="M6 3.25643C6 3.16616 6.02474 3.08803 6.07422 3.02203C6.1237 2.9561 6.18229 2.9231 6.25 2.9231C6.31771 2.9231 6.3763 2.9561 6.42578 3.02203L9.92578 7.68873C9.97526 7.7547 10 7.83283 10 7.9231C10 8.01338 9.97526 8.0915 9.92578 8.15748L6.42578 12.8241C6.3763 12.8901 6.31771 12.9231 6.25 12.9231C6.18229 12.9231 6.1237 12.8901 6.07422 12.8241C6.02474 12.7582 6 12.68 6 12.5898C6 12.4995 6.02474 12.4214 6.07422 12.3554L9.39453 7.9231L6.07422 3.49083C6.02474 3.42483 6 3.3467 6 3.25643Z" fill="#484848"/>
</svg>
