<svg width="16" height="16" viewBox="0 0 16 16" fill="none" xmlns="http://www.w3.org/2000/svg">
<path d="M3.25641 10C3.16615 10 3.08801 9.97526 3.02201 9.92578C2.95608 9.8763 2.92308 9.81771 2.92308 9.75C2.92308 9.68229 2.95608 9.6237 3.02201 9.57422L7.68871 6.07422C7.75468 6.02474 7.83281 6 7.92308 6C8.01336 6 8.09149 6.02474 8.15746 6.07422L12.8241 9.57422C12.8901 9.6237 12.9231 9.68229 12.9231 9.75C12.9231 9.81771 12.8901 9.8763 12.8241 9.92578C12.7582 9.97526 12.68 10 12.5897 10C12.4995 10 12.4213 9.97526 12.3554 9.92578L7.92308 6.60547L3.49081 9.92578C3.42481 9.97526 3.34668 10 3.25641 10Z" fill="#484848"/>
</svg>
