<svg width="16" height="16" viewBox="0 0 16 16" fill="none" xmlns="http://www.w3.org/2000/svg">
<path d="M12.9011 12.4323L9.7604 9.29167C10.0417 8.95486 10.2621 8.57813 10.4219 8.16146C10.5851 7.74132 10.6667 7.29861 10.6667 6.83333C10.6667 6.48264 10.6198 6.14583 10.5261 5.82292C10.4357 5.49653 10.3073 5.19097 10.1406 4.90625C9.97393 4.62153 9.7726 4.36285 9.53647 4.13021C9.30382 3.8941 9.04514 3.69271 8.76041 3.52604C8.47569 3.35937 8.17014 3.2309 7.84375 3.14063C7.52083 3.04688 7.18403 3 6.83333 3C6.30903 3 5.81423 3.10243 5.34896 3.30729C4.88715 3.50868 4.4809 3.78472 4.13021 4.13541C3.78299 4.48264 3.50695 4.88889 3.30208 5.35417C3.10069 5.81597 3 6.30903 3 6.83333C3 7.18055 3.04514 7.51736 3.13542 7.84375C3.22917 8.16667 3.35937 8.47049 3.52604 8.75521C3.69618 9.03646 3.89931 9.29514 4.13541 9.53125C4.37153 9.76733 4.63021 9.97047 4.91146 10.1406C5.19618 10.3073 5.5 10.4375 5.82292 10.5313C6.14931 10.6215 6.48611 10.6667 6.83333 10.6667C7.29861 10.6667 7.73959 10.5868 8.15625 10.4271C8.57639 10.2639 8.95486 10.0417 9.29167 9.7604L12.4323 12.9011C12.4983 12.967 12.5764 13 12.6667 13C12.7569 13 12.8351 12.967 12.9011 12.9011C12.967 12.8351 13 12.7569 13 12.6667C13 12.5764 12.967 12.4983 12.9011 12.4323ZM3.66667 6.83333C3.66667 6.40278 3.75 5.99653 3.91667 5.61459C4.08681 5.22917 4.31597 4.89236 4.60417 4.60417C4.89236 4.31597 5.22743 4.08854 5.60937 3.92187C5.99479 3.75173 6.40278 3.66667 6.83333 3.66667C7.26389 3.66667 7.67014 3.75173 8.05208 3.92187C8.4375 4.08854 8.77431 4.31597 9.0625 4.60417C9.35067 4.89236 9.57813 5.22917 9.7448 5.61459C9.91493 5.99653 10 6.40278 10 6.83333C10 7.26389 9.91493 7.67187 9.7448 8.05729C9.57813 8.43923 9.35067 8.77431 9.0625 9.0625C8.77431 9.35069 8.4375 9.57986 8.05208 9.75C7.67014 9.91667 7.26389 10 6.83333 10C6.40278 10 5.99479 9.91667 5.60937 9.75C5.22743 9.57986 4.89236 9.35069 4.60417 9.0625C4.31597 8.77431 4.08681 8.43923 3.91667 8.05729C3.75 7.67187 3.66667 7.26389 3.66667 6.83333Z" fill="#484848"/>
</svg>