<svg width="16" height="16" viewBox="0 0 16 16" fill="none" xmlns="http://www.w3.org/2000/svg">
<path d="M6.62562 3C6.68145 3 6.73728 3.00985 6.7931 3.02956C6.84893 3.04926 6.8982 3.07882 6.94089 3.11823L7.84729 3.93596C7.90969 3.93268 7.97208 3.93268 8.03448 3.93596C8.09688 3.93596 8.15928 3.9376 8.22168 3.94089L8.98522 3.15271C9.07389 3.05747 9.18554 3.00985 9.32022 3.00985C9.40887 3.00985 9.50081 3.02627 9.59608 3.05911C9.69129 3.08867 9.78159 3.11987 9.86703 3.15271C9.93922 3.17898 10.023 3.21018 10.1182 3.24631C10.2134 3.28243 10.3038 3.32676 10.3892 3.37931C10.4746 3.42857 10.5468 3.48768 10.6059 3.55665C10.6683 3.62562 10.7012 3.70772 10.7044 3.80296L10.7635 5.0197C10.8095 5.0624 10.8539 5.10673 10.8966 5.15271C10.9393 5.1954 10.982 5.23974 11.0246 5.28571C11.2118 5.28243 11.399 5.27915 11.5862 5.27586C11.7734 5.27258 11.9606 5.27094 12.1478 5.27094C12.1872 5.27094 12.2249 5.2775 12.2611 5.29064C12.3005 5.30378 12.3366 5.32184 12.3695 5.34482C12.4286 5.38423 12.4942 5.45977 12.5665 5.57143C12.642 5.68308 12.711 5.8046 12.7734 5.93596C12.8391 6.06732 12.8932 6.19704 12.9359 6.32512C12.9786 6.4532 13 6.55336 13 6.62561C13 6.68144 12.9902 6.73727 12.9704 6.7931C12.9508 6.84893 12.9212 6.89819 12.8818 6.94088L12.064 7.84729C12.0673 7.90968 12.0673 7.97208 12.064 8.03448C12.064 8.09688 12.0624 8.15927 12.0591 8.22167L12.8473 8.98522C12.9426 9.07387 12.9902 9.18554 12.9902 9.32022C12.9902 9.40888 12.9737 9.50245 12.9409 9.601C12.9081 9.69622 12.8769 9.78487 12.8473 9.86697C12.821 9.93923 12.7898 10.023 12.7537 10.1182C12.7176 10.2102 12.6733 10.2988 12.6207 10.3842C12.5714 10.4696 12.5123 10.5435 12.4434 10.6059C12.3744 10.665 12.2939 10.6978 12.202 10.7045L10.9803 10.7635C10.9376 10.8095 10.8933 10.8538 10.8473 10.8966C10.8046 10.9393 10.7603 10.982 10.7143 11.0246C10.7176 11.2118 10.7208 11.399 10.7241 11.5862C10.7274 11.7734 10.729 11.9606 10.729 12.1478C10.729 12.1872 10.7225 12.2249 10.7094 12.2611C10.6963 12.2972 10.6782 12.3317 10.6552 12.3645C10.6289 12.4039 10.5846 12.4483 10.5222 12.4975C10.4631 12.5435 10.3941 12.5911 10.3153 12.6404C10.2365 12.6864 10.1511 12.7307 10.0591 12.7734C9.97044 12.8161 9.88342 12.8555 9.79805 12.8916C9.71267 12.9245 9.63221 12.9508 9.55667 12.9704C9.48441 12.9902 9.42363 13 9.37438 13C9.31858 13 9.26272 12.9902 9.20691 12.9704C9.15107 12.9508 9.10181 12.9212 9.05911 12.8818L8.15271 12.064C8.09031 12.0673 8.02791 12.0689 7.96552 12.0689C7.90312 12.0657 7.84072 12.0624 7.77833 12.0591L7.01478 12.8473C6.92611 12.9425 6.81445 12.9902 6.6798 12.9902C6.59113 12.9902 6.49918 12.9753 6.40394 12.9458C6.3087 12.913 6.21839 12.8801 6.13301 12.8473C6.06075 12.821 5.97701 12.7898 5.88177 12.7537C5.78654 12.7176 5.69623 12.6749 5.61084 12.6256C5.52545 12.5731 5.4532 12.5123 5.39409 12.4434C5.33498 12.3711 5.30214 12.289 5.29557 12.197L5.23645 10.9803C5.19047 10.9376 5.14614 10.8949 5.10345 10.8522C5.06075 10.8062 5.01807 10.7603 4.97537 10.7143C4.78818 10.7176 4.60099 10.7208 4.41379 10.7241C4.2266 10.7274 4.03941 10.729 3.85222 10.729C3.81281 10.729 3.77504 10.7225 3.73892 10.7094C3.70279 10.6962 3.66831 10.6782 3.63547 10.6551C3.59606 10.6289 3.55173 10.5862 3.50246 10.5271C3.45649 10.4647 3.40887 10.3941 3.35961 10.3153C3.31363 10.2365 3.26929 10.1527 3.2266 10.064C3.18391 9.97208 3.1445 9.88342 3.10837 9.79805C3.07553 9.71261 3.04926 9.63379 3.02956 9.56159C3.00985 9.48606 3 9.42363 3 9.37439C3 9.31852 3.00985 9.26272 3.02956 9.20692C3.04926 9.15105 3.07882 9.1018 3.11823 9.05912L3.93596 8.15271C3.93268 8.09031 3.93104 8.02791 3.93104 7.96551C3.93432 7.90311 3.9376 7.84072 3.94089 7.77832L3.15271 7.01478C3.05747 6.92611 3.00985 6.81445 3.00985 6.6798C3.00985 6.59113 3.02627 6.49918 3.05911 6.40394C3.09195 6.30542 3.12315 6.2151 3.15271 6.133C3.17898 6.06075 3.21018 5.97865 3.24631 5.8867C3.28243 5.79146 3.32512 5.70115 3.37438 5.61576C3.42693 5.53037 3.48768 5.45649 3.55665 5.39409C3.62561 5.33169 3.70608 5.29885 3.79803 5.29557L5.0197 5.23645C5.0624 5.19047 5.10509 5.14614 5.14779 5.10345C5.19376 5.06075 5.23974 5.01806 5.28572 4.97536C5.28243 4.78818 5.27915 4.60099 5.27586 4.41379C5.27258 4.2266 5.27094 4.03941 5.27094 3.85222C5.27094 3.81281 5.2775 3.77504 5.29064 3.73892C5.30378 3.69951 5.32184 3.66338 5.34483 3.63054C5.38424 3.57143 5.45977 3.50575 5.57143 3.4335C5.68308 3.35796 5.8046 3.289 5.93596 3.2266C6.06732 3.16092 6.19705 3.10673 6.32512 3.06404C6.4532 3.02135 6.55337 3 6.62562 3ZM5.90148 3.97537L5.91626 5.1133C5.91626 5.16256 5.8867 5.22988 5.82759 5.31527C5.77176 5.39737 5.70444 5.47783 5.62562 5.55665C5.5468 5.63547 5.4647 5.70443 5.37931 5.76354C5.29721 5.82266 5.23153 5.85385 5.18226 5.85714L3.93596 5.92118L3.66995 6.63547L4.48276 7.42857C4.52873 7.47455 4.55665 7.52873 4.5665 7.59113C4.57964 7.65353 4.58621 7.71756 4.58621 7.78325C4.58621 7.82266 4.58621 7.87685 4.58621 7.94581C4.58621 8.01149 4.58292 8.07881 4.57636 8.14778C4.57307 8.21674 4.56486 8.28243 4.55172 8.34483C4.53859 8.40393 4.51888 8.44827 4.49261 8.47783L3.6601 9.40396L3.97537 10.0985C4.16584 10.0952 4.35632 10.0919 4.5468 10.0887C4.73727 10.0854 4.92775 10.0837 5.11823 10.0837C5.16749 10.0837 5.23317 10.1133 5.31527 10.1724C5.39737 10.2315 5.47783 10.3005 5.55665 10.3793C5.63547 10.4581 5.70444 10.5386 5.76355 10.6207C5.82266 10.7028 5.85386 10.7685 5.85715 10.8178L5.92118 12.064L6.63547 12.3301L7.42857 11.5172C7.47455 11.468 7.53038 11.4384 7.59606 11.4286C7.66502 11.4187 7.73235 11.4138 7.79803 11.4138C7.83744 11.4138 7.88998 11.4138 7.95567 11.4138C8.02135 11.4138 8.08703 11.4171 8.15271 11.4236C8.22168 11.4269 8.28572 11.4351 8.34483 11.4483C8.40394 11.4614 8.44828 11.4811 8.47784 11.5074L9.40396 12.3399L10.0985 12.0246L10.0837 10.8867C10.0837 10.8374 10.1117 10.7717 10.1675 10.6896C10.2266 10.6043 10.2955 10.5222 10.3744 10.4433C10.4532 10.3645 10.5336 10.2955 10.6158 10.2365C10.7012 10.1773 10.7684 10.1461 10.8178 10.1428L12.064 10.0788L12.33 9.36455L11.5172 8.57142C11.4713 8.52545 11.4417 8.47126 11.4286 8.40886C11.4187 8.34647 11.4138 8.28243 11.4138 8.21674C11.4138 8.17734 11.4138 8.12479 11.4138 8.05911C11.4138 7.99015 11.4154 7.92118 11.4187 7.85221C11.4253 7.78325 11.4351 7.71921 11.4483 7.6601C11.4614 7.5977 11.4811 7.55172 11.5074 7.52217L12.3399 6.59606L12.0246 5.90148C11.8341 5.90476 11.6437 5.90804 11.4532 5.91133C11.2627 5.91461 11.0722 5.91625 10.8818 5.91625C10.8325 5.91625 10.7668 5.8867 10.6847 5.82759C10.6026 5.76847 10.5222 5.6995 10.4433 5.62069C10.3645 5.54187 10.2955 5.46141 10.2365 5.37931C10.1773 5.29721 10.1462 5.23153 10.1429 5.18226L10.0788 3.93596L9.36455 3.66995L8.57143 4.48276C8.52545 4.52873 8.47127 4.55829 8.40887 4.57143C8.34647 4.58128 8.28243 4.58621 8.21675 4.58621C8.17734 4.58621 8.12316 4.58621 8.05419 4.58621C7.9885 4.58621 7.92118 4.58456 7.85222 4.58128C7.78325 4.57471 7.71757 4.56486 7.65517 4.55172C7.59606 4.53859 7.55173 4.51888 7.52217 4.49261L6.59606 3.6601L5.90148 3.97537ZM8.00493 6.42364C8.21839 6.42364 8.42036 6.46634 8.61084 6.55172C8.80132 6.63382 8.96716 6.74712 9.10838 6.89162C9.25288 7.03612 9.36619 7.20361 9.44828 7.39408C9.53366 7.58456 9.57635 7.78653 9.57635 8C9.57635 8.21346 9.53366 8.41707 9.44828 8.61083C9.36619 8.80131 9.25288 8.96882 9.10838 9.11328C8.96716 9.25452 8.79967 9.36783 8.60591 9.45321C8.41544 9.5353 8.21346 9.57635 8 9.57635C7.78653 9.57635 7.58457 9.5353 7.39409 9.45321C7.20361 9.36783 7.03613 9.25288 6.89163 9.10836C6.74712 8.96384 6.63218 8.79638 6.5468 8.60591C6.4647 8.41543 6.42364 8.21346 6.42364 8C6.42364 7.78325 6.4647 7.57963 6.5468 7.38916C6.63218 7.1954 6.74549 7.02791 6.8867 6.8867C7.0312 6.7422 7.19869 6.6289 7.38916 6.54679C7.58292 6.46469 7.78818 6.42364 8.00493 6.42364ZM8 7.05418C7.86864 7.05418 7.74549 7.08046 7.63055 7.133C7.5156 7.18554 7.41544 7.25615 7.33005 7.34483C7.24467 7.43349 7.17734 7.53694 7.12808 7.65517C7.07882 7.77339 7.05419 7.89655 7.05419 8.02462C7.05419 8.15271 7.08046 8.27257 7.133 8.38424C7.18883 8.49589 7.26109 8.59441 7.34975 8.6798C7.44171 8.7619 7.54516 8.82758 7.6601 8.87684C7.77833 8.92282 7.89984 8.94581 8.02463 8.94581C8.15271 8.94581 8.27257 8.91953 8.38424 8.86699C8.49589 8.81116 8.59278 8.73891 8.67488 8.65024C8.76026 8.55829 8.82594 8.45484 8.87192 8.3399C8.92118 8.22167 8.94581 8.10016 8.94581 7.97537C8.94581 7.85057 8.91954 7.73234 8.86699 7.62069C8.81445 7.50903 8.74384 7.41215 8.65518 7.33005C8.56979 7.24466 8.46962 7.17734 8.35468 7.12808C8.24302 7.07881 8.1248 7.05418 8 7.05418Z" fill="#484848"/>
</svg>
